<svg width="130" height="130" viewBox="0 0 130 130" fill="none" xmlns="http://www.w3.org/2000/svg">
<path d="M56.4705 15.1127C57.7613 15.1198 58.9971 15.6357 59.9098 16.5484C60.8225 17.4611 61.3384 18.697 61.3455 19.9877V29.7919H55.2518L51.9476 21.8565C51.6395 21.1141 51.5197 20.3072 51.5989 19.5074C51.6781 18.7076 51.9538 17.9398 52.4015 17.2723C52.8491 16.6048 53.4549 16.0583 54.1648 15.6815C54.8748 15.3048 55.6668 15.1094 56.4705 15.1127ZM73.533 15.1127C74.3367 15.1094 75.1288 15.3048 75.8387 15.6815C76.5487 16.0583 77.1544 16.6048 77.6021 17.2723C78.0498 17.9398 78.3255 18.7076 78.4047 19.5074C78.4838 20.3072 78.364 21.1141 78.0559 21.8565L74.7518 29.7919H68.658V19.9877C68.6651 18.697 69.181 17.4611 70.0937 16.5484C71.0065 15.6357 72.2423 15.1198 73.533 15.1127Z" fill="#FF87AF" stroke="#45413C" stroke-width="2.72917" stroke-linecap="round" stroke-linejoin="round"/>
<path d="M64.9998 13.8933C65.9003 13.8972 66.7893 14.0964 67.6054 14.477C68.4215 14.8576 69.1454 15.4106 69.7272 16.0979C70.309 16.7853 70.7349 17.5906 70.9754 18.4584C71.216 19.3262 71.2655 20.2358 71.1207 21.1246L69.8748 28.5454H60.1248L58.879 21.1246C58.7341 20.2358 58.7837 19.3262 59.0242 18.4584C59.2648 17.5906 59.6906 16.7853 60.2724 16.0979C60.8542 15.4106 61.5781 14.8576 62.3943 14.477C63.2104 14.0964 64.0993 13.8972 64.9998 13.8933Z" fill="#FF87AF" stroke="#45413C" stroke-width="2.72917" stroke-linecap="round" stroke-linejoin="round"/>
<path d="M33.0963 71.4191C33.3813 69.9522 33.3813 68.4442 33.0963 66.9774C32.2966 63.9386 30.3565 61.325 27.6794 59.6798C25.0023 58.0345 21.7942 57.4842 18.7219 58.1433C15.6496 58.8025 12.9494 60.6202 11.1828 63.2188C9.4161 65.8173 8.71882 68.9968 9.23588 72.0961C10.2696 76.7793 12.6386 81.0625 16.0562 84.4272C19.4738 87.7919 23.7934 90.0939 28.4921 91.0545C52.2713 96.8503 50.4296 93.5191 50.4296 93.5191L33.0963 71.4191Z" fill="#6DD627"/>
<path d="M9.53302 73.6399C10.3964 71.4341 11.8063 69.4841 13.6302 67.9728C15.4542 66.4615 17.6323 65.4387 19.9601 65.0003C22.3245 64.4407 24.7938 64.506 27.1254 65.1898C29.4569 65.8736 31.5704 67.1523 33.258 68.9003C33.2166 68.2997 33.1352 67.7025 33.0143 67.1128C32.2145 64.074 30.2745 61.4604 27.5974 59.8151C24.9203 58.1699 21.7122 57.6196 18.6398 58.2787C15.5675 58.9378 12.8674 60.7556 11.1007 63.3541C9.33407 65.9527 8.63679 69.1321 9.15385 72.2315C9.26219 72.6107 9.3976 73.1253 9.53302 73.6399Z" fill="#9CEB60"/>
<path d="M33.0963 71.4191C33.3813 69.9522 33.3813 68.4442 33.0963 66.9774C32.2966 63.9386 30.3565 61.325 27.6794 59.6798C25.0023 58.0345 21.7942 57.4842 18.7219 58.1433C15.6496 58.8025 12.9494 60.6202 11.1828 63.2188C9.4161 65.8173 8.71882 68.9968 9.23588 72.0961C10.2696 76.7793 12.6386 81.0625 16.0562 84.4272C19.4738 87.7919 23.7934 90.0939 28.4921 91.0545C52.2713 96.8503 50.4296 93.5191 50.4296 93.5191L33.0963 71.4191Z" stroke="#45413C" stroke-width="2.72917" stroke-linecap="round" stroke-linejoin="round"/>
<path d="M111.395 48.0998C108.046 47.8686 104.742 48.9723 102.204 51.1697C99.6671 53.3671 98.1026 56.4795 97.8529 59.8268V60.8018L89.5654 79.7602C89.5654 79.7602 94.63 84.4727 105.03 82.8748C116.622 81.1414 122.715 69.4685 123.311 61.6685C123.429 59.9932 123.213 58.3112 122.676 56.7199C122.139 55.1285 121.292 53.6594 120.184 52.3975C119.076 51.1357 117.729 50.1061 116.22 49.3684C114.711 48.6307 113.071 48.1995 111.395 48.0998Z" fill="#6DD627"/>
<path d="M109.769 55.3854C112.514 55.5047 115.176 56.3594 117.477 57.8603C119.779 59.3611 121.634 61.4529 122.85 63.9167C122.85 63.1583 123.094 62.4271 123.148 61.7229C123.381 58.4183 122.317 55.153 120.181 52.6205C118.046 50.088 115.007 48.4878 111.71 48.16C108.414 47.8321 105.119 48.8023 102.527 50.8645C99.934 52.9267 98.2474 55.9184 97.8252 59.2042C99.4582 57.7992 101.357 56.737 103.409 56.081C105.461 55.4249 107.624 55.1884 109.769 55.3854Z" fill="#9CEB60"/>
<path d="M111.395 48.0998C108.046 47.8686 104.742 48.9723 102.204 51.1697C99.6671 53.3671 98.1026 56.4795 97.8529 59.8268V60.8018L89.5654 79.7602C89.5654 79.7602 94.63 84.4727 105.03 82.8748C116.622 81.1414 122.715 69.4685 123.311 61.6685C123.429 59.9932 123.213 58.3112 122.676 56.7199C122.139 55.1285 121.292 53.6594 120.184 52.3975C119.076 51.1357 117.729 50.1061 116.22 49.3684C114.711 48.6307 113.071 48.1995 111.395 48.0998Z" stroke="#45413C" stroke-width="2.72917" stroke-linecap="round" stroke-linejoin="round"/>
<path opacity="0.15" d="M33.854 123.229C33.854 124.307 37.1354 125.34 42.9764 126.102C48.8174 126.864 56.7394 127.292 64.9998 127.292C73.2602 127.292 81.1823 126.864 87.0233 126.102C92.8643 125.34 96.1457 124.307 96.1457 123.229C96.1457 122.152 92.8643 121.118 87.0233 120.357C81.1823 119.595 73.2602 119.167 64.9998 119.167C56.7394 119.167 48.8174 119.595 42.9764 120.357C37.1354 121.118 33.854 122.152 33.854 123.229Z" fill="#45413C"/>
<path d="M64.9999 26.0808C60.2612 26.1224 55.5782 27.1071 51.224 28.9775C46.8699 30.8479 42.9317 33.5666 39.6393 36.975C36.3468 40.3834 33.766 44.4133 32.0474 48.8296C30.3288 53.2459 29.5067 57.9601 29.6291 62.6975C29.6291 76.4016 35.6416 94.2225 39.6229 104.46C41.5519 109.634 45.0164 114.095 49.5521 117.245C54.0878 120.394 59.4779 122.082 64.9999 122.082C70.522 122.082 75.9121 120.394 80.4478 117.245C84.9835 114.095 88.448 109.634 90.377 104.46C94.3583 94.2225 100.371 76.4016 100.371 62.6975C100.493 57.9601 99.6711 53.2459 97.9525 48.8296C96.2338 44.4133 93.653 40.3834 90.3606 36.975C87.0682 33.5666 83.13 30.8479 78.7758 28.9775C74.4217 27.1071 69.7387 26.1224 64.9999 26.0808Z" fill="#6DD627"/>
<path d="M64.9999 38.5933C73.5678 38.6557 81.8246 41.8118 88.2496 47.4803C94.6745 53.1488 98.835 60.9479 99.9645 69.4412C100.227 67.2028 100.363 64.9513 100.371 62.6975C100.482 57.963 99.6525 53.2535 97.9299 48.8421C96.2073 44.4307 93.626 40.4052 90.3358 36.999C87.0455 33.5929 83.1117 30.8738 78.7626 28.9996C74.4134 27.1254 69.7354 26.1333 64.9999 26.0808C60.2612 26.1224 55.5782 27.1071 51.224 28.9775C46.8699 30.8479 42.9317 33.5666 39.6393 36.975C36.3468 40.3834 33.766 44.4133 32.0474 48.8296C30.3288 53.2459 29.5067 57.9601 29.6291 62.6975C29.6369 64.9513 29.7725 67.2028 30.0354 69.4412C31.1376 60.9363 35.2901 53.1208 41.721 47.4471C48.1519 41.7733 56.424 38.6272 64.9999 38.5933Z" fill="#9CEB60"/>
<path d="M64.9999 26.0808C60.2612 26.1224 55.5782 27.1071 51.224 28.9775C46.8699 30.8479 42.9317 33.5666 39.6393 36.975C36.3468 40.3834 33.766 44.4133 32.0474 48.8296C30.3288 53.2459 29.5067 57.9601 29.6291 62.6975C29.6291 76.4016 35.6416 94.2225 39.6229 104.46C41.5519 109.634 45.0164 114.095 49.5521 117.245C54.0878 120.394 59.4779 122.082 64.9999 122.082C70.522 122.082 75.9121 120.394 80.4478 117.245C84.9835 114.095 88.448 109.634 90.377 104.46C94.3583 94.2225 100.371 76.4016 100.371 62.6975C100.493 57.9601 99.6711 53.2459 97.9525 48.8296C96.2338 44.4133 93.653 40.3834 90.3606 36.975C87.0682 33.5666 83.13 30.8479 78.7758 28.9775C74.4217 27.1071 69.7387 26.1224 64.9999 26.0808Z" stroke="#45413C" stroke-width="2.72917" stroke-linecap="round" stroke-linejoin="round"/>
<path d="M64.9995 87.0998C63.6562 87.1073 62.3581 86.6153 61.3572 85.7195C60.3562 84.8236 59.7239 83.5878 59.5829 82.2519L59.0141 74.9936C58.999 74.8247 59.0194 74.6545 59.0738 74.4939C59.1283 74.3333 59.2157 74.1858 59.3304 74.0609C59.4451 73.936 59.5846 73.8364 59.74 73.7685C59.8954 73.7006 60.0633 73.6658 60.2328 73.6665H69.7662C69.9358 73.6658 70.1036 73.7006 70.259 73.7685C70.4144 73.8364 70.5539 73.936 70.6687 74.0609C70.7834 74.1858 70.8707 74.3333 70.9252 74.4939C70.9797 74.6545 71 74.8247 70.9849 74.9936L70.4162 82.2519C70.2752 83.5878 69.6428 84.8236 68.6418 85.7195C67.6409 86.6153 66.3428 87.1073 64.9995 87.0998Z" fill="#FF866E" stroke="#45413C" stroke-width="2.72917" stroke-linecap="round" stroke-linejoin="round"/>
<path d="M45.8242 60.26C45.8242 61.2297 46.2094 62.1597 46.8951 62.8454C47.5808 63.531 48.5108 63.9163 49.4805 63.9163C50.4502 63.9163 51.3801 63.531 52.0658 62.8454C52.7515 62.1597 53.1367 61.2297 53.1367 60.26C53.1367 59.2903 52.7515 58.3603 52.0658 57.6747C51.3801 56.989 50.4502 56.6038 49.4805 56.6038C48.5108 56.6038 47.5808 56.989 46.8951 57.6747C46.2094 58.3603 45.8242 59.2903 45.8242 60.26ZM76.8617 60.26C76.8617 61.2297 77.2469 62.1597 77.9326 62.8454C78.6183 63.531 79.5483 63.9163 80.518 63.9163C81.4877 63.9163 82.4177 63.531 83.1033 62.8454C83.789 62.1597 84.1742 61.2297 84.1742 60.26C84.1742 59.2903 83.789 58.3603 83.1033 57.6747C82.4177 56.989 81.4877 56.6038 80.518 56.6038C79.5483 56.6038 78.6183 56.989 77.9326 57.6747C77.2469 58.3603 76.8617 59.2903 76.8617 60.26Z" fill="#45413C" stroke="#45413C" stroke-width="2.72917" stroke-linecap="round" stroke-linejoin="round"/>
<path d="M49.4813 73.125C49.4813 74.5875 47.4771 75.8333 45.0396 75.8333C42.6021 75.8333 40.625 74.6145 40.625 73.125C40.625 71.6354 42.6021 70.4166 45.0667 70.4166C47.5312 70.4166 49.4813 71.7166 49.4813 73.125ZM80.5187 73.125C80.5187 74.5875 82.5229 75.8333 84.9604 75.8333C87.3979 75.8333 89.375 74.6145 89.375 73.125C89.375 71.6354 87.3979 70.4166 84.9333 70.4166C82.4688 70.4166 80.5187 71.7166 80.5187 73.125Z" fill="#C8FFA1"/>
<path d="M62.6969 14.3271L61.3427 10.2375M67.3011 14.3271L68.6552 10.2375M43.2782 33.6375L39.3782 29.7646M33.0407 46.773L28.4094 45.6084M85.9615 33.0959L89.4011 28.5459M95.1698 43.4146L99.1511 40.7334M113.668 48.4792L115.022 44.3896M123.174 60.8021L128.455 59.0417M118.245 74.4521L122.334 78.5688M102.347 83.2L104.053 88.3188M20.0407 57.3625L18.6323 51.7021M9.23441 66.598L5.22607 63.9167M16.1948 84.6625L12.5386 88.3188M29.4927 91.2709L28.4094 95.6313M39.4865 104.135L35.7219 105.408M92.7865 97.9063L96.7136 100.506M108.928 61.4792L111.366 57.823M107.709 71.2292L111.366 70.0105M24.7261 76.1042L19.8511 73.6667M77.1865 41.9521L78.4323 37.0771M55.249 40.7334L54.0302 37.0771M84.5261 95.6313L88.1823 93.1938M47.9094 94.4125L44.2532 91.975M74.749 100.506L75.9677 96.85" stroke="#45413C" stroke-width="2.72917" stroke-linecap="round" stroke-linejoin="round"/>
</svg>
